<svg width="70" height="60" viewBox="0 0 70 60" fill="none" xmlns="http://www.w3.org/2000/svg">
<g clip-path="url(#clip0_1009_4027)">
<path fill-rule="evenodd" clip-rule="evenodd" d="M40.9607 42.0855C41.1258 42.0314 41.2901 41.9753 41.4534 41.917C41.9801 44.4913 42.5715 46.4497 43.264 47.8392L43.3797 48.0696L43.4654 48.2436L43.7249 48.7758C43.8318 48.9944 43.9211 49.1738 44.0103 49.3478L44.0401 49.4056C44.6944 50.6731 45.3454 51.6286 46.2482 52.4839C47.3911 53.5666 48.8036 54.3149 50.532 54.7065C52.8701 55.2362 54.973 54.7504 56.6292 53.4911C57.8659 52.5506 58.7852 51.1989 59.1109 50.0066C59.3471 49.1417 59.4692 48.3053 59.4257 47.4018C59.3656 46.1538 58.9797 44.9566 58.2148 43.8855C56.8664 41.9976 54.8445 41.2715 52.8603 42.3656C51.6382 43.0393 51.1772 44.6074 51.8305 45.8677C52.3207 46.8131 53.2987 47.317 54.2726 47.2252L54.3206 47.2202C54.4597 47.566 54.4448 47.9849 54.2925 48.5598L54.2832 48.5796C54.2547 48.6382 54.2129 48.7103 54.1606 48.7873C54.0261 48.985 53.8512 49.1734 53.6511 49.3256C53.1876 49.678 52.6225 49.8298 51.8379 49.6971C49.2122 48.3971 47.9388 46.1964 48.0178 43.0951C48.063 41.3242 48.4079 39.704 49.0526 38.2346L49.4485 38.0353C50.4446 39.2055 52.1802 40.2247 55.1952 39.9804C57.7299 39.7751 59.5949 39.0717 60.8858 38.1678L61.529 38.0326L61.6896 38.0003L61.7279 37.9928C62.0031 37.9393 62.0669 37.937 62.2167 37.9314L62.2518 37.9301L62.2744 37.9292C62.4392 37.9226 62.5587 37.9344 62.6605 37.9624L62.7453 37.9862L62.7857 37.9979C63.7047 38.2685 63.8902 38.5606 63.8175 39.5845C63.8083 39.7135 63.791 39.815 63.7692 39.8924L63.7567 39.9323L63.7457 39.9611L63.7289 39.9681C63.6744 39.9887 63.5844 40.0068 63.5073 40.0083C63.4861 40.0023 63.4563 39.9916 63.4181 39.9752C63.2801 39.9162 63.103 39.8127 62.893 39.6608L62.8476 39.6276L62.8089 39.5995C61.6329 38.7608 60.0172 39.0452 59.1798 40.2467C58.3331 41.4615 58.6024 43.1537 59.7815 44.0265C60.9375 44.8823 62.0957 45.3782 63.297 45.4216C64.3972 45.4613 65.5811 45.19 66.6145 44.5032C68.0369 43.5578 68.9174 41.9835 69.0597 39.9814C69.3278 36.2114 67.3927 33.6556 64.0118 32.728C63.3745 32.5531 62.7335 32.4897 62.0664 32.5168C61.6334 32.5344 61.2069 32.5878 60.7228 32.6762L60.61 32.6971L60.4833 32.7217L60.4186 32.7345C60.3534 32.7477 60.2859 32.7616 60.2138 32.7767L59.3991 32.9516L59.2986 32.9727C59.1326 33.007 58.9749 33.0375 58.8239 33.0644C57.3414 33.139 55.938 33.08 55.4616 32.1311C54.7225 30.6592 54.6861 27.8576 55.3523 23.7261L55.2571 23.7845C55.3159 23.1297 55.346 22.4663 55.346 21.7957C55.346 10.0409 46.1064 0.511719 34.7087 0.511719C23.3111 0.511719 14.0715 10.0409 14.0715 21.7957C14.0715 22.5678 14.1114 23.3304 14.189 24.0811C14.1628 24.3248 14.1682 24.5762 14.2092 24.8301C14.8341 28.6965 15.0695 31.2457 14.9493 32.1756L14.9411 32.2399C14.9277 32.3475 14.915 32.4587 14.9025 32.5783L14.8874 32.7262L14.8723 32.8841L14.7821 33.8805C14.7176 34.5441 14.6511 35.0279 14.5596 35.4464C14.3776 35.9399 14.1597 36.3177 13.9228 36.5457C13.3061 37.1393 12.4064 36.9825 11.2237 36.0751C10.7156 35.53 10.2311 35.0664 9.76602 34.6827C8.61073 33.7295 7.49128 33.1817 6.26978 33.1817C5.15704 33.1817 4.1996 33.3134 3.32664 33.6526C2.09109 34.1328 1.11869 35.0135 0.590387 36.2836C-0.0821118 37.9004 0.142447 39.6538 1.03451 41.4246C1.70534 42.7562 3.29584 43.2748 4.58699 42.583C5.87814 41.8912 6.38102 40.2508 5.71019 38.9192L5.68624 38.8709C5.64748 38.7917 5.6145 38.7185 5.58685 38.6512C5.7186 38.6353 5.87372 38.6239 6.05115 38.6189L6.07622 38.6339C6.1792 38.6968 6.31401 38.7938 6.47444 38.9262C6.98743 39.3494 7.62921 40.0236 8.37785 40.9399L8.50362 41.0948L8.6249 41.2462C8.74882 41.4018 8.88912 41.5427 9.04322 41.6663C9.79766 42.2714 10.588 42.6908 11.3922 42.9242C11.488 42.9608 11.5788 42.9911 11.6647 43.015C12.6434 43.2887 14.1889 43.2629 15.6792 43.015C17.9103 42.6439 19.6768 40.8676 20.9789 37.6862C21.6301 38.2852 22.3185 38.8422 23.0397 39.353C23.9949 42.1548 24.0183 43.7859 23.1098 44.246C22.1008 44.7571 20.9491 44.6788 19.6547 44.0112L19.6617 44.018C19.2087 43.7948 18.7329 43.6324 18.1789 43.5181C15.0931 42.8816 12.7488 43.9177 11.3985 46.902C10.4257 49.0522 10.6506 51.2943 12.0068 53.2527C12.8123 54.4156 14.3793 54.685 15.5069 53.8543C16.6345 53.0237 16.8957 51.4075 16.0903 50.2444L16.0646 50.2068C15.7726 49.7731 15.7533 49.5163 15.9459 49.0907C16.0611 48.8361 16.1658 48.6683 16.2519 48.5717C16.2832 48.5367 16.2915 48.5311 16.2915 48.5311L16.297 48.5289C16.3111 48.5239 16.3354 48.5184 16.3737 48.5144L16.4167 48.5108L16.4635 48.5087C16.6409 48.5033 16.8832 48.5288 17.1947 48.5931C17.4455 48.6447 17.6133 48.7296 17.9582 48.9934L18.0372 49.0546C18.0297 49.0489 18.5893 49.495 18.7881 49.6449L18.871 49.707C19.7004 50.3218 20.5231 50.769 21.573 51.1109C24.8264 52.1705 28.766 50.1752 29.8336 47.2247C29.9237 47.0623 30.0055 46.8975 30.079 46.7302C30.4762 45.8248 30.6909 44.4758 30.7232 42.6831C31.2925 42.798 31.8702 42.8887 32.4552 42.9542C33.682 44.6143 34.2327 46.3467 34.1071 48.1515C34.0702 48.6815 33.9988 49.1778 33.8929 49.6405C33.7234 50.1679 33.5383 50.6367 33.3382 51.0463C32.7651 52.2186 32.1254 52.8441 31.4104 53.1603C30.9385 53.369 30.5203 53.4288 29.8448 53.4306L29.8355 53.4276C29.822 53.4232 29.8047 53.4167 29.7832 53.4075L29.7573 53.396C29.625 53.3355 29.4526 53.226 29.2466 53.0601L29.2074 53.0292C27.9257 52.0318 26.1002 52.2758 25.1085 53.5862C24.1067 54.91 24.335 56.8207 25.6186 57.8539C26.9376 58.9158 28.3359 59.5117 29.812 59.5117C30.3946 59.5117 30.8108 59.4935 31.3587 59.4182C32.16 59.3082 32.9514 59.0955 33.7345 58.7491C35.7327 57.8653 37.4097 56.2257 38.6034 53.7834C39.9451 51.0384 40.7061 47.1612 40.9607 42.0855Z" fill="#4A4A4A"/>
<path d="M38.4736 23.0896C39.5129 23.0896 40.3554 22.2206 40.3554 21.1488C40.3554 20.077 39.5129 19.208 38.4736 19.208C37.4343 19.208 36.5918 20.077 36.5918 21.1488C36.5918 22.2206 37.4343 23.0896 38.4736 23.0896Z" fill="#D38FFF"/>
<path d="M24.7119 23.0896C25.7513 23.0896 26.5937 22.2206 26.5937 21.1488C26.5937 20.077 25.7513 19.208 24.7119 19.208C23.6726 19.208 22.8301 20.077 22.8301 21.1488C22.8301 22.2206 23.6726 23.0896 24.7119 23.0896Z" fill="#D38FFF"/>
<path d="M28.4985 28.1356L29.3288 28.5733C31.0783 29.4955 33.1816 29.3264 34.7713 28.1356" stroke="#D38FFF" stroke-width="0.5" stroke-linecap="round"/>
<path opacity="0.4245" d="M42.8008 32.4054C44.8101 32.4054 46.439 30.7254 46.439 28.6532C46.439 26.5809 44.8101 24.901 42.8008 24.901C40.7915 24.901 39.1626 26.5809 39.1626 28.6532C39.1626 30.7254 40.7915 32.4054 42.8008 32.4054Z" fill="#D38FFF"/>
<path opacity="0.4245" d="M20.4697 31.8878C22.479 31.8878 24.1079 30.2079 24.1079 28.1356C24.1079 26.0634 22.479 24.3834 20.4697 24.3834C18.4604 24.3834 16.8315 26.0634 16.8315 28.1356C16.8315 30.2079 18.4604 31.8878 20.4697 31.8878Z" fill="#D38FFF"/>
<path fill-rule="evenodd" clip-rule="evenodd" d="M20.1226 10.2237C20.3136 10.3777 20.688 10.2129 20.9587 9.85558C21.2293 9.49829 22.1586 8.08775 21.9675 7.93378C21.7763 7.7798 20.5373 8.94069 20.2667 9.29798C19.996 9.65526 19.9315 10.0697 20.1226 10.2237Z" fill="white"/>
</g>
<defs>
<clipPath id="clip0_1009_4027">
<rect width="69" height="59" fill="white" transform="translate(0.199219 0.511719)"/>
</clipPath>
</defs>
</svg>
