<svg width="72" height="64" viewBox="0 0 72 64" fill="none" xmlns="http://www.w3.org/2000/svg">
<path d="M65.4664 7.36665C63.7639 5.66333 61.7425 4.31214 59.5176 3.39026C57.2927 2.46839 54.908 1.9939 52.4998 1.9939C50.0915 1.9939 47.7068 2.46839 45.4819 3.39026C43.257 4.31214 41.2356 5.66333 39.5331 7.36665L35.9997 10.9L32.4664 7.36665C29.0274 3.92768 24.3632 1.99568 19.4997 1.99568C14.6363 1.99568 9.97205 3.92768 6.53308 7.36665C3.09411 10.8056 1.16211 15.4699 1.16211 20.3333C1.16211 25.1968 3.09411 29.861 6.53308 33.3L10.0664 36.8333L35.9997 62.7667L61.9331 36.8333L65.4664 33.3C67.1697 31.5975 68.5209 29.576 69.4428 27.3512C70.3647 25.1263 70.8392 22.7416 70.8392 20.3333C70.8392 17.925 70.3647 15.5403 69.4428 13.3155C68.5209 11.0906 67.1697 9.06917 65.4664 7.36665Z" stroke="url(#paint0_linear_902_1964)" stroke-width="2" stroke-linecap="round" stroke-linejoin="round"/>
<defs>
<linearGradient id="paint0_linear_902_1964" x1="36.0006" y1="1.9939" x2="36.0006" y2="62.7666" gradientUnits="userSpaceOnUse">
<stop stop-color="#D289FF"/>
<stop offset="1" stop-color="#55A8FF"/>
</linearGradient>
</defs>
</svg>
